<?xml version="1.0" encoding="UTF-8"?>
<svg version="1.1" xmlns="http://www.w3.org/2000/svg" width="1024" height="1024">
<path d="M0 0 C337.92 0 675.84 0 1024 0 C1024 337.92 1024 675.84 1024 1024 C686.08 1024 348.16 1024 0 1024 C0 686.08 0 348.16 0 0 Z " fill="#FCFDFD" transform="translate(0,0)"/>
<path d="M0 0 C17.24667366 15.28018082 31.26209387 35.66704043 32.73046875 59.40332031 C33.67688773 87.22015159 28.79947684 109.58032074 10.53515625 131.24609375 C9.92414063 132.05691406 9.313125 132.86773438 8.68359375 133.703125 C-4.37311374 149.15751877 -28.53394658 160.50877584 -48.46484375 162.24609375 C-74.81553271 163.70936533 -98.61137009 157.37552019 -118.71484375 139.87109375 C-120.31630368 138.34826524 -121.89961986 136.80614334 -123.46484375 135.24609375 C-124.29628906 134.43785156 -125.12773437 133.62960937 -125.984375 132.796875 C-144.87716447 113.38170426 -150.01962127 89.28422062 -149.74609375 63.02734375 C-149.52196305 54.90484719 -148.17101564 47.90911513 -145.46484375 40.24609375 C-145.12582031 39.22257812 -144.78679687 38.1990625 -144.4375 37.14453125 C-136.03955225 14.49099247 -117.91614598 -3.0351211 -96.3125 -13.06640625 C-64.65685019 -27.18068858 -26.70137763 -22.3851486 0 0 Z " fill="#2A924D" transform="translate(570.46484375,401.75390625)"/>
<path d="M0 0 C17.24667366 15.28018082 31.26209387 35.66704043 32.73046875 59.40332031 C33.67688773 87.22015159 28.79947684 109.58032074 10.53515625 131.24609375 C9.92414063 132.05691406 9.313125 132.86773438 8.68359375 133.703125 C-4.37311374 149.15751877 -28.53394658 160.50877584 -48.46484375 162.24609375 C-74.81553271 163.70936533 -98.61137009 157.37552019 -118.71484375 139.87109375 C-120.31630368 138.34826524 -121.89961986 136.80614334 -123.46484375 135.24609375 C-124.29628906 134.43785156 -125.12773437 133.62960937 -125.984375 132.796875 C-144.87716447 113.38170426 -150.01962127 89.28422062 -149.74609375 63.02734375 C-149.52196305 54.90484719 -148.17101564 47.90911513 -145.46484375 40.24609375 C-145.12582031 39.22257812 -144.78679687 38.1990625 -144.4375 37.14453125 C-136.03955225 14.49099247 -117.91614598 -3.0351211 -96.3125 -13.06640625 C-64.65685019 -27.18068858 -26.70137763 -22.3851486 0 0 Z M-117.46484375 21.24609375 C-131.82209446 39.08633704 -136.73339292 60.72577127 -134.46484375 83.24609375 C-130.53937636 104.02300772 -118.87790379 121.81687956 -101.77734375 134.140625 C-84.46859196 145.14229625 -64.11461519 150.43246622 -43.77734375 146.05859375 C-22.13009769 140.3127198 -3.77081964 129.2556974 7.66796875 109.69140625 C10.39419497 104.66100557 12.66904903 99.65414566 14.53515625 94.24609375 C14.85355469 93.38628906 15.17195312 92.52648437 15.5 91.640625 C21.52115679 72.41176945 17.72170706 51.40045033 8.73583984 33.88867188 C-1.2156688 15.45085157 -17.55190927 3.68423713 -37.16796875 -2.7890625 C-66.5931642 -11.40046448 -97.177868 -1.43810841 -117.46484375 21.24609375 Z " fill="#030403" transform="translate(570.46484375,401.75390625)"/>
<path d="M0 0 C3.93626471 2.37269289 7.46383262 5.06988963 11 8 C11.51079102 8.41652832 12.02158203 8.83305664 12.54785156 9.26220703 C21.8869092 16.94693376 21.8869092 16.94693376 22.30078125 20.80078125 C22.20152344 21.52652344 22.10226562 22.25226563 22 23 C19.7265625 23.71484375 19.7265625 23.71484375 17 24 C15.1484375 22.62890625 15.1484375 22.62890625 13.375 20.5625 C4.8211597 11.38159246 -5.29049935 4.06553705 -18.125 3.4375 C-23.86407586 3.65142442 -27.77722094 5.09265745 -32 9 C-36.09463074 14.24952659 -37.51602167 18.56750356 -37.3828125 25.1328125 C-35.81121892 36.90372766 -26.80437328 45.8054245 -18 53 C-7.03684924 61.25262081 5.3054208 66.70193461 18.05859375 71.55078125 C30.2829677 76.21189503 37.92165115 80.8961575 44 93 C45.01036276 96.6396022 45.10787036 100.04676029 45.0625 103.8125 C45.05347656 104.78832031 45.04445313 105.76414062 45.03515625 106.76953125 C45.02355469 107.50558594 45.01195312 108.24164063 45 109 C45.58507324 109.24024902 46.17014648 109.48049805 46.77294922 109.72802734 C49.43874069 111.25058529 50.75355802 112.92984281 52.6328125 115.3515625 C61.80515907 126.60790781 61.80515907 126.60790781 75.03515625 131.25390625 C81.40455741 131.39159963 87.69757126 130.91131009 94 130 C98.4067573 121.20283933 100.02893675 112.76012996 97.1171875 103.05859375 C94.73467849 97.89123149 91.61786416 94.2006484 87.2578125 90.5703125 C86.84273437 90.05210937 86.42765625 89.53390625 86 89 C86.3046875 86.8046875 86.3046875 86.8046875 87 85 C89.25 84.26171875 89.25 84.26171875 92 84 C98.93103307 89.10638611 104.41581279 98.54044029 106 107 C106.74076354 115.85273149 105.63431245 122.90392004 102 131 C110.37997639 131.54637195 110.37997639 131.54637195 117.64453125 128.48046875 C118.52626076 126.69824952 119.26702297 124.84837685 120 123 C123.25556313 119.94174373 126.18775492 119.76970621 130.5 119.625 C134.81224508 119.76970621 137.74443687 119.94174373 141 123 C144.77109363 128.19799393 145.81155954 131.60896864 145 138 C142.30455136 143.10209922 139.4785689 146.17381037 134 148 C128.71880506 148.62658245 125.9812161 148.40012348 121.625 145.25 C118.84790502 143.05930356 117.50169892 141.17361767 116 138 C115.39295227 138.03188416 114.78590454 138.06376831 114.16046143 138.09661865 C66.16495342 140.46230268 66.16495342 140.46230268 56.1640625 132.48046875 C51.83728796 128.41227225 48.28189877 123.91877266 45.23779297 118.82006836 C44.82932129 118.2194458 44.42084961 117.61882324 44 117 C43.34 117 42.68 117 42 117 C41.34 118.65 40.68 120.3 40 122 C40.77674072 122.75675522 41.55348145 123.51351044 42.35375977 124.29319763 C49.6765206 131.43338775 56.97530346 138.59732159 64.25138855 145.785079 C67.99277891 149.4795317 71.74205976 153.16516252 75.51074219 156.83178711 C79.14857526 160.3717158 82.76387066 163.93328728 86.36471558 167.51082039 C87.74119163 168.87068732 89.12555654 170.22261729 90.51785278 171.56628227 C92.46969166 173.45262139 94.39135291 175.36545766 96.30859375 177.28686523 C97.17821243 178.10794769 97.17821243 178.10794769 98.06539917 178.94561768 C101.25631448 182.21220796 102.33992405 184.28354072 102.35571289 188.91957092 C102.26540747 190.28188258 102.15661759 191.64371129 102 193 C100.3468196 191.58790841 98.69452208 190.17477296 97.04614258 188.75708008 C95.75099046 187.64489659 94.45182831 186.53735147 93.1472168 185.4362793 C88.01737197 181.05037157 83.38764991 176.33104756 78.8125 171.375 C77.44471513 169.9029907 76.07624226 168.43162035 74.70703125 166.9609375 C74.1138208 166.31946777 73.52061035 165.67799805 72.90942383 165.01708984 C70.65112743 162.63145567 68.32490357 160.32082424 66 158 C64.27188718 156.26261428 62.54447044 154.52453603 60.81762695 152.78588867 C55.80534198 147.74086547 50.7879269 142.70097709 45.76759052 137.66396618 C42.74122343 134.62718048 39.71675028 131.58855749 36.6965332 128.5456543 C33.75801352 125.58521719 30.8144669 122.62986135 27.86754417 119.67778969 C26.75478944 118.56137918 25.6437765 117.4432294 24.53466225 116.32320213 C10.35115316 102.00568894 -6.86577321 87.48216824 -27.953125 85.6875 C-31.24901678 86.19068958 -32.88881585 88.26665197 -35.18359375 90.55078125 C-38.43015027 93.14104462 -41.95977584 93.31702489 -46 93 C-51.37285867 91.17525555 -54.47401035 88.05197929 -57 83 C-57.56350726 78.38108804 -57.4422879 74.90158688 -55.375 70.6875 C-51.78053294 66.62007675 -48.98136378 64.24767047 -43.5 63.5625 C-38.22162555 64.22229681 -34.72835034 65.93846724 -31.1875 69.875 C-29.07303974 72.89565752 -28.55599013 74.47275079 -28 78 C-27.319375 78.14695312 -26.63875 78.29390625 -25.9375 78.4453125 C-2.92096674 83.77094653 12.63479332 94.29183921 29.06616211 111.10229492 C31.76094124 113.90625112 31.76094124 113.90625112 35 116 C37.68556957 108.61468368 38.72708302 99.98067705 35.4375 92.625 C30.20792285 83.95679677 22.24752134 81.27673098 13.14599609 77.82714844 C-7.90420771 69.71360003 -29.31940585 58.18488639 -41 38 C-41.35835937 37.39285156 -41.71671875 36.78570312 -42.0859375 36.16015625 C-45.5399633 28.9193774 -45.50568843 18.44862492 -42.96875 10.953125 C-34.06788665 -5.36512447 -15.67102204 -7.37705027 0 0 Z " fill="#0B0B0B" transform="translate(558,279)"/>
<path d="M0 0 C2.48483438 2.05886278 4.35129287 4.16020081 6.1875 6.8125 C6.1875 7.4725 6.1875 8.1325 6.1875 8.8125 C6.78361084 8.80361755 7.37972168 8.79473511 7.99389648 8.7855835 C14.22353483 8.69677928 20.45299202 8.63662895 26.68310547 8.59277344 C29.00511993 8.57271423 31.32708423 8.54546009 33.64892578 8.51074219 C36.99524345 8.46197459 40.34089059 8.43947357 43.6875 8.421875 C44.7180249 8.40122986 45.7485498 8.38058472 46.81030273 8.35931396 C54.6102701 8.35691033 59.71301191 9.9183232 65.71630859 14.91894531 C66.7655249 16.01867676 66.7655249 16.01867676 67.8359375 17.140625 C68.61324219 17.93984375 69.39054687 18.7390625 70.19140625 19.5625 C70.97386719 20.3875 71.75632812 21.2125 72.5625 22.0625 C74.1492346 23.71778153 75.74015946 25.36906006 77.3359375 27.015625 C78.02864746 27.74426758 78.72135742 28.47291016 79.43505859 29.22363281 C81.04019678 31.03639529 81.04019678 31.03639529 83.1875 30.8125 C84.8321674 28.34923288 84.8321674 28.34923288 86.1875 25.8125 C84.7025 25.3175 84.7025 25.3175 83.1875 24.8125 C83.1875 24.1525 83.1875 23.4925 83.1875 22.8125 C81.7025 22.3175 81.7025 22.3175 80.1875 21.8125 C78.609375 20.2109375 78.609375 20.2109375 76.9375 18.1875 C71.30411442 11.12481352 71.30411442 11.12481352 64.1875 5.8125 C64.1875 5.1525 64.1875 4.4925 64.1875 3.8125 C65.70163238 3.59314883 67.22536196 3.43974252 68.75 3.3125 C69.59691406 3.2196875 70.44382812 3.126875 71.31640625 3.03125 C74.64191849 3.93615129 75.21782487 4.74200912 77.36279297 7.33789062 C83.31842259 14.35743373 89.85363345 20.81877441 96.32739258 27.35742188 C97.93629354 28.98788727 99.53890608 30.62458307 101.13500977 32.26757812 C116.22391616 47.79382157 131.40016438 59.28343559 153.4375 62.25 C157.27651797 61.63924714 158.6778044 59.67076443 161.1875 56.8125 C164.38928039 55.21160981 167.70518987 55.4551734 171.1875 55.8125 C176.53490414 57.76635921 179.64368143 60.72486287 182.1875 65.8125 C182.55907837 71.38617556 182.4574856 75.0657467 179.1875 79.8125 C175.92533134 83.08329873 172.80928928 85.11476171 168.125 85.375 C163.7193317 84.74561881 161.61131873 83.5993292 158.1875 80.8125 C157.589375 80.4 156.99125 79.9875 156.375 79.5625 C154.36336436 76.59798431 154.47645185 73.33771255 154.1875 69.8125 C153.053125 69.77125 151.91875 69.73 150.75 69.6875 C127.55242159 67.08555993 110.16229862 52.2071128 94.54101562 36.19775391 C93.43096498 35.06167394 92.31064071 33.93564071 91.1875 32.8125 C87.59847117 38.34558611 87.42613814 43.43609439 88.1875 49.8125 C89.63160039 55.80379745 91.92529653 60.68623525 96.8984375 64.453125 C103.21998005 68.20721512 110.21066081 70.65501076 117.04296875 73.3125 C129.77387104 78.27895979 140.43027078 84.31181599 151.1875 92.8125 C152.19296875 93.56660156 152.19296875 93.56660156 153.21875 94.3359375 C161.43607389 100.7977422 169.20273156 111.1702866 170.5625 121.72265625 C170.92867401 130.77402002 168.57656206 137.08296931 163 144.125 C157.50176796 149.91200473 152.34422278 151.91550482 144.35424805 152.28149414 C127.31071156 152.53262874 116.6054508 143.23255835 104.63671875 131.953125 C103.1875 129.8125 103.1875 129.8125 103.45703125 127.046875 C104.1875 124.8125 104.1875 124.8125 105.83984375 123.96875 C108.1875 123.8125 108.1875 123.8125 110.81640625 126.09375 C111.80343987 127.15823764 112.78077695 128.23177062 113.75 129.3125 C120.8870077 136.85960452 129.02514281 143.71224496 139.6796875 145.1484375 C146.44871132 145.2594051 151.66046759 144.08824257 156.72265625 139.38671875 C161.55943377 133.92947997 162.72577702 128.74474622 162.5546875 121.64453125 C161.12984351 110.65504301 150.8415856 101.68485437 142.625 95.1875 C133.80402129 88.86782768 124.24105007 84.38907025 114.1796875 80.40625 C88.36335874 70.181863 88.36335874 70.181863 82.02734375 55.9765625 C80.17946027 51.21503949 80.17946027 51.21503949 80.23364258 48.50219727 C80.31825271 42.17025107 78.96175173 38.87212874 74.63671875 34.21484375 C72.73604764 32.36178862 70.82405873 30.54905717 68.875 28.75 C67.89950935 27.80759332 66.92618102 26.86294304 65.95507812 25.91601562 C58.57238456 18.52680153 58.57238456 18.52680153 48.765625 16.6171875 C47.22841797 16.62685547 47.22841797 16.62685547 45.66015625 16.63671875 C44.06494141 16.66185547 44.06494141 16.66185547 42.4375 16.6875 C40.81908203 16.70103516 40.81908203 16.70103516 39.16796875 16.71484375 C36.50758722 16.73838695 33.84765664 16.77127201 31.1875 16.8125 C26.72464962 25.69880773 25.45214393 33.98617586 27.953125 43.82421875 C30.3371212 50.15316103 33.52877393 54.97265017 39.1875 58.8125 C38.8575 60.4625 38.5275 62.1125 38.1875 63.8125 C36.40234375 64.49609375 36.40234375 64.49609375 34.1875 64.8125 C27.56095101 60.43927416 22.23753124 51.72882649 19.6953125 44.3359375 C17.72160093 34.52810922 18.41117723 24.68281371 23.1875 15.8125 C13.7322057 15.22755308 13.7322057 15.22755308 5.41015625 18.33203125 C4.33428749 20.44051177 4.33428749 20.44051177 3.1875 23.8125 C-0.64456212 27.41231593 -5.0346455 27.43310673 -10.08203125 27.296875 C-14.5254241 26.50863364 -17.05425649 24.28094992 -19.8125 20.8125 C-22.13240611 16.87874616 -22.35679495 13.32237248 -21.8125 8.8125 C-17.39911099 -0.0507523 -9.42010112 -3.97737603 0 0 Z " fill="#0B0B0B" transform="translate(340.8125,517.1875)"/>
<path d="M0 0 C45.1372549 0 45.1372549 0 53.875 7.1875 C60.18532072 14.25863953 61.74994541 21.14543683 61.4453125 30.55859375 C60.54327797 37.52957993 57.68146002 42.78339745 52.5 47.5 C48.8262333 50.32720307 45.709367 52 41 52 C42.56056926 54.00153172 44.12303809 56.00151234 45.6875 58 C46.17210693 58.6192334 46.65671387 59.2384668 47.15600586 59.87646484 C49.92152705 63.39685709 52.71576117 66.89002385 55.5546875 70.3515625 C56.13903564 71.06441406 56.72338379 71.77726562 57.32543945 72.51171875 C58.46647334 73.8998831 59.61074786 75.28539127 60.75854492 76.66796875 C61.28295166 77.30605469 61.8073584 77.94414062 62.34765625 78.6015625 C63.04387085 79.44195068 63.04387085 79.44195068 63.75415039 80.29931641 C65.08473249 82.11566657 66.04927801 83.96277834 67 86 C61.64646649 86.84635536 56.28592615 87.53224465 51 86 C46.90255179 82.58104257 44.31817325 78.58715361 41.4453125 74.13085938 C38.85502987 70.31194269 35.84375343 66.83950084 32.875 63.3125 C31.69030343 61.87981747 30.50668499 60.44624264 29.32421875 59.01171875 C27.27048276 56.52994961 25.21060467 54.05353394 23.14453125 51.58203125 C22.33371094 50.60621094 21.52289063 49.63039063 20.6875 48.625 C19.99011719 47.79226563 19.29273438 46.95953125 18.57421875 46.1015625 C17 44 17 44 16 41 C16.63502441 40.98541748 17.27004883 40.97083496 17.92431641 40.95581055 C20.82513081 40.88094911 23.72484206 40.78441574 26.625 40.6875 C28.12353516 40.65366211 28.12353516 40.65366211 29.65234375 40.61914062 C35.10916869 40.4203821 39.33298586 40.14417349 44 37 C47.34251344 32.32048118 47.88947559 27.57671215 47 22 C44.35348016 16.50338187 42.7689877 15.88449385 37 13 C29.08 12.67 21.16 12.34 13 12 C13 36.75 13 61.5 13 87 C8.71 87 4.42 87 0 87 C0 58.29 0 29.58 0 0 Z " fill="#060606" transform="translate(331,426)"/>
<path d="M0 0 C2.625 0.375 2.625 0.375 5 1 C5.9710978 20.74565519 -4.65309353 38.84121469 -17.48144531 53.03027344 C-19.63101028 55.37613308 -21.80930214 57.69251862 -24 60 C-22.63438497 63.06758844 -21.08648636 65.1595255 -18.6875 67.5 C-17.82705078 68.35078125 -17.82705078 68.35078125 -16.94921875 69.21875 C-16.30597656 69.8065625 -15.66273438 70.394375 -15 71 C-14.23171875 71.7321875 -13.4634375 72.464375 -12.671875 73.21875 C-9.31829725 75.4544685 -7.53558683 75.29950242 -3.5625 75 C0.63840847 74.87672278 2.68325259 74.85551873 6.5625 76.625 C10.41356672 80.37732142 13.1953312 83.48276306 13.4375 89 C13.18878964 93.64555428 11.48963868 97.10409623 8.625 100.75 C4.37937576 104.0158648 0.25630482 104.54375567 -5 104 C-10.46730496 101.77601154 -12.99120513 99.50656131 -15.3515625 94.08984375 C-16.5208829 90.32125089 -16.61199906 86.74541015 -15.30395508 83.01489258 C-14.76708472 80.94508894 -14.76708472 80.94508894 -16.1081543 79.24487305 C-16.67445557 78.67293213 -17.24075684 78.10099121 -17.82421875 77.51171875 C-18.44103516 76.88845703 -19.05785156 76.26519531 -19.69335938 75.62304688 C-20.35142578 74.98431641 -21.00949219 74.34558594 -21.6875 73.6875 C-22.32623047 73.02943359 -22.96496094 72.37136719 -23.62304688 71.69335938 C-24.24630859 71.07654297 -24.86957031 70.45972656 -25.51171875 69.82421875 C-26.08365967 69.25791748 -26.65560059 68.69161621 -27.24487305 68.1081543 C-28.93755753 66.7983352 -28.93755753 66.7983352 -31.00170898 67.13427734 C-33.30616289 68.13263941 -34.67075539 69.26781718 -36.4609375 71.02734375 C-37.09483398 71.64988037 -37.72873047 72.27241699 -38.38183594 72.91381836 C-39.03958008 73.5816333 -39.69732422 74.24944824 -40.375 74.9375 C-41.04821289 75.61756104 -41.72142578 76.29762207 -42.41503906 76.99829102 C-47.14459312 81.88206966 -51.23094423 86.72949327 -54 93 C-54.50684326 94.13606689 -55.01368652 95.27213379 -55.53588867 96.44262695 C-57.48524777 101.70038444 -57.48568517 106.80334765 -57.50390625 112.359375 C-57.51389145 113.42617493 -57.52387665 114.49297485 -57.53416443 115.59210205 C-57.54928176 117.83431134 -57.55639221 120.07658746 -57.5559082 122.31884766 C-57.56250777 125.75404272 -57.61716384 129.18640431 -57.67382812 132.62109375 C-57.68262402 134.80467765 -57.68858236 136.98827521 -57.69140625 139.171875 C-57.7129628 140.19794861 -57.73451935 141.22402222 -57.75672913 142.28118896 C-57.73057721 144.98677778 -57.65542479 147.37450232 -57 150 C-54.24454283 152.59950103 -54.24454283 152.59950103 -51 154 C-48.29575514 157.20239522 -47.11548693 159.22046321 -46.5 163.375 C-47.21970329 168.59284887 -48.49408667 173.09657222 -52.8359375 176.39453125 C-56.86196751 178.57722568 -60.40469331 179.86162 -65 179 C-69.25259149 177.08917973 -72.28558771 175.00464229 -75 171.1875 C-76.70425522 165.7551865 -76.97345839 161.87480875 -74.3125 156.75 C-72.05065724 154.06024104 -69.89799998 151.98284209 -67 150 C-66.34 150 -65.68 150 -65 150 C-65.00888245 149.41055099 -65.01776489 148.82110199 -65.0269165 148.21379089 C-65.11598584 142.03235657 -65.17597936 135.851107 -65.21972656 129.66918945 C-65.23973827 127.36768173 -65.26695631 125.06622418 -65.30175781 122.76489258 C-65.35073699 119.44079138 -65.37307401 116.11736724 -65.390625 112.79296875 C-65.41127014 111.7779277 -65.43191528 110.76288666 -65.45318604 109.71708679 C-65.4571429 96.87975087 -60.17094348 85.21938656 -51.34057617 75.93408203 C-50.00121396 74.61525688 -48.6515956 73.30678286 -47.29296875 72.0078125 C-46.20572258 70.93972855 -46.20572258 70.93972855 -45.09651184 69.85006714 C-42.80303227 67.59837576 -40.49681165 65.36044274 -38.1875 63.125 C-21.22590847 46.67033955 -5.10196148 30.27949181 -2.4375 5.5 C-2 2 -2 2 0 0 Z " fill="#0A0A0A" transform="translate(612,492)"/>
<path d="M0 0 C6.63674502 0.37324401 10.51692692 5.91306745 14.71679688 10.51904297 C22 18.92465753 22 18.92465753 22 23 C25.0999665 22.98675228 27.99940046 22.81125395 31 22 C33.39130445 19.20485402 33.39130445 19.20485402 35 16 C38.06186739 12.71132762 41.43149784 12.27474525 45.7578125 11.94140625 C50.64897643 12.06922412 53.34834879 14.41918044 56.875 17.5625 C59.54537109 21.02793303 59.65305002 24.32733995 59.421875 28.59765625 C58.61065493 33.21710388 56.29949185 35.85338954 52.875 38.875 C48.55651358 40.56484251 44.5732948 40.65960983 40 40 C36.28293965 38.17526128 34.51613786 36.92474699 32.5 33.3125 C31.14681688 30.65352292 31.14681688 30.65352292 27.8125 30.1875 C26.884375 30.125625 25.95625 30.06375 25 30 C25.32226562 30.85722656 25.64453125 31.71445312 25.9765625 32.59765625 C30.97357682 49.20986799 22.88980992 66.25220915 15.75 80.9375 C15.09257884 82.31389434 14.43632325 83.69084603 13.78125 85.06835938 C12.20080942 88.38540422 10.60499379 91.69475199 9 95 C10.98771159 94.93896484 12.97542318 94.87792969 14.96313477 94.81689453 C18.17754113 95.10585591 19.81579541 96.74960739 22 99 C23.73631636 102.47263273 23.60190402 106.21193013 23 110 C20.81840855 112.75569447 19.12822506 114.43588747 16 116 C12.03691587 116.37387586 9.70084485 116.38935825 6.1875 114.4375 C3.50862728 111.4524704 2.82197577 108.88570366 2 105 C1.53851562 105.51949219 1.07703125 106.03898438 0.6015625 106.57421875 C-4.39727884 111.91882975 -9.27553039 115.16979909 -16 118 C-16.80050781 118.35320312 -17.60101562 118.70640625 -18.42578125 119.0703125 C-31.09256717 123.64496356 -43.0859543 120.95741329 -55 116 C-56.485 115.505 -56.485 115.505 -58 115 C-58.5775 115.309375 -59.155 115.61875 -59.75 115.9375 C-63.05891299 117.50004225 -65.37997512 117.43689955 -69 117 C-71.97239241 115.21523759 -74.42604027 113.14791945 -76 110 C-76.55512815 105.36786507 -76.6364242 102.01827873 -74.125 98 C-70.42853343 94.52097264 -67.40391772 94.61218834 -62.484375 94.640625 C-60 95 -60 95 -56.9375 97.375 C-53.87998273 101.51744276 -53.90485475 103.86215623 -54 109 C-53.38511719 109.20496094 -52.77023437 109.40992188 -52.13671875 109.62109375 C-47.06835938 111.31054688 -47.06835938 111.31054688 -42 113 C-29.80025361 113.86232275 -17.68737252 113.18622525 -7.92114258 104.87109375 C-0.98526757 98.11590934 3.19352261 89.15275643 7.28979492 80.51464844 C8.18573323 78.62871901 9.09858476 76.75169992 10.01367188 74.875 C17.32675 59.82118111 17.32675 59.82118111 19.5 43.4375 C19.48573975 42.71280518 19.47147949 41.98811035 19.45678711 41.24145508 C18.99071156 29.3054064 13.77288894 20.8944803 6 12 C4.677642 10.8175996 3.32762672 9.66442972 1.9375 8.5625 C-1 6 -1 6 -1.5 3.1875 C-1 1 -1 1 0 0 Z " fill="#0A0A0A" transform="translate(643,504)"/>
<path d="M0 0 C4.30543683 2.23551528 7.60229159 4.7579005 10 9 C10.87572913 14.87427291 10.52568339 20.06404325 7 25 C1.84210526 29 1.84210526 29 -1 29 C-0.99000725 29.89083534 -0.99000725 29.89083534 -0.97981262 30.79966736 C-0.91314319 37.01328079 -0.86806885 43.22679163 -0.83520508 49.44067383 C-0.82017271 51.75582002 -0.7997413 54.070938 -0.77368164 56.38598633 C-0.73705404 59.72484324 -0.72021759 63.0633217 -0.70703125 66.40234375 C-0.69154739 67.42770737 -0.67606354 68.45307098 -0.66011047 69.50950623 C-0.65863315 75.90103153 -1.55720261 81.09356578 -4 87 C-4.278936 87.69119934 -4.55787201 88.38239868 -4.84526062 89.09454346 C-8.75891465 98.34467817 -17.28810154 105.35894195 -24.34375 112.265625 C-25.00249115 112.91189346 -25.6612323 113.55816193 -26.3399353 114.22401428 C-29.07650178 116.90624579 -31.81357119 119.58752579 -34.57080078 122.24853516 C-49.69437882 136.86978795 -61.16209862 151.78083036 -63.54296875 173.41796875 C-64 176 -64 176 -66 178 C-68.625 178.125 -68.625 178.125 -71 178 C-72.98912357 161.27662774 -64.01296244 144.62368943 -54.125 131.8125 C-50.06094959 126.89579587 -45.6023657 122.41060046 -41 118 C-42.94887615 115.6013832 -44.93257605 113.29428413 -47 111 C-47.65355469 110.2471875 -48.30710937 109.494375 -48.98046875 108.71875 C-53.22255464 104.25947687 -53.22255464 104.25947687 -59 102.859375 C-61.0694941 103.11806176 -63.13519221 103.40936875 -65.1953125 103.734375 C-68.10723932 104.01015637 -69.44221497 103.83926941 -72 102.5 C-76.11410869 99.07157609 -78.47487674 96.10743042 -79.37890625 90.7578125 C-79.65921575 85.38672077 -78.64361622 82.13599679 -75 78 C-71.28354428 74.81446653 -67.93831709 74.53422958 -63.2109375 74.71484375 C-58.54811071 75.31623307 -55.78984873 77.12476222 -52.6875 80.5625 C-49.86786054 84.63531256 -49.8314223 87.02695798 -50 92 C-50.45826172 93.12341797 -50.45826172 93.12341797 -50.92578125 94.26953125 C-51.01704056 97.62691323 -50.36028474 98.13673342 -48.17578125 100.5859375 C-46.90365818 101.86470699 -45.61508519 103.12727393 -44.3125 104.375 C-43.67376953 105.02855469 -43.03503906 105.68210937 -42.37695312 106.35546875 C-39.85642609 108.88973965 -39.85642609 108.88973965 -37 111 C-29.69528052 110.45207922 -22.72271643 101.0174558 -18 96 C-15.44884799 92.79846453 -13.70539884 89.70154619 -12 86 C-11.64542725 85.25218262 -11.29085449 84.50436523 -10.92553711 83.73388672 C-6.62667529 73.0026311 -7.32488176 61.63202821 -7.25 50.25 C-7.2217983 48.08851818 -7.19186512 45.92705822 -7.16015625 43.765625 C-7.08679259 38.51050236 -7.03485828 33.25551179 -7 28 C-8.41345703 27.82791016 -8.41345703 27.82791016 -9.85546875 27.65234375 C-13.86819855 26.81988925 -14.79262841 25.35193463 -17 22 C-18.97574437 18.04851126 -18.43190217 13.30685543 -18 9 C-16.21049365 5.14567864 -14.73665715 3.50226624 -11.25 1.125 C-7.31429019 -0.23736109 -4.11487079 -0.74067674 0 0 Z " fill="#090909" transform="translate(478,274)"/>
<path d="M0 0 C1.24463013 0.00592163 1.24463013 0.00592163 2.5144043 0.01196289 C8.5067275 0.15110262 13.63042931 1.16665772 19.20703125 3.46484375 C22.06472702 4.55787946 24.71156055 5.10272076 27.75 5.4375 C28.41 5.1075 29.07 4.7775 29.75 4.4375 C34.75404498 4.05983623 37.74885156 4.32549566 41.75 7.4375 C44.36429492 9.96164681 44.72469861 11.20557058 45.125 14.875 C44.63603663 19.520152 43.18748382 21.83415266 40.125 25.25 C36.37571599 27.12464201 32.85131718 27.06002136 28.75 26.4375 C25.8125 25.0625 25.8125 25.0625 23.75 22.4375 C23.49895341 20.77673025 23.29505812 19.10850592 23.125 17.4375 C22.59659819 14.32222669 22.33432138 12.91218582 19.85546875 10.8984375 C10.50239087 6.9043428 -2.71747989 6.23942096 -12.33984375 9.73046875 C-31.59622419 18.05985623 -39.84232175 41.18741305 -47.25 59.4375 C-51.9762761 71.95087864 -51.12077754 83.11384599 -46.25 95.4375 C-45.92 96.4275 -45.59 97.4175 -45.25 98.4375 C-47.89 98.4375 -50.53 98.4375 -53.25 98.4375 C-53.47429687 97.79296875 -53.69859375 97.1484375 -53.9296875 96.484375 C-55.07889456 94.19361148 -55.07889456 94.19361148 -57.6328125 93.828125 C-58.53773438 93.78171875 -59.44265625 93.7353125 -60.375 93.6875 C-61.74011719 93.60242188 -61.74011719 93.60242188 -63.1328125 93.515625 C-63.83148438 93.48984375 -64.53015625 93.4640625 -65.25 93.4375 C-65.4975 94.18 -65.745 94.9225 -66 95.6875 C-67.36291363 98.68590999 -68.75095178 100.31709545 -71.25 102.4375 C-75.32094774 103.79448258 -78.99353744 103.96137231 -83.25 103.4375 C-87.63544865 101.24477567 -90.48315916 99.05091775 -92.25 94.4375 C-92.96615513 89.77164082 -93.37645832 85.40794085 -90.97265625 81.203125 C-88.27706068 78.01322707 -86.16549624 75.62842364 -81.859375 75.19921875 C-75.78363795 75.04151519 -71.9854863 75.1877046 -67.25 79.4375 C-65.25 82.4375 -65.25 82.4375 -65.25 85.4375 C-62.61 85.4375 -59.97 85.4375 -57.25 85.4375 C-57.58 84.4475 -57.91 83.4575 -58.25 82.4375 C-58.39716542 80.62906337 -58.4710887 78.81418434 -58.5 77 C-58.52578125 76.05253906 -58.5515625 75.10507812 -58.578125 74.12890625 C-57.54934026 62.55507788 -52.90478554 52.56710134 -48.0625 42.1875 C-47.40074715 40.74913257 -46.73993342 39.31033268 -46.08007812 37.87109375 C-44.48081012 34.38816034 -42.86903475 30.91128615 -41.25 27.4375 C-42.89548828 27.49164063 -42.89548828 27.49164063 -44.57421875 27.546875 C-48.96046371 27.41635974 -50.2373553 26.53622026 -53.25 23.4375 C-55.53853994 20.16815722 -55.72162218 17.3676848 -55.25 13.4375 C-52.09210526 7.85855263 -52.09210526 7.85855263 -49.25 6.4375 C-47.2265625 6.26953125 -47.2265625 6.26953125 -44.875 6.25 C-43.71871094 6.22873047 -43.71871094 6.22873047 -42.5390625 6.20703125 C-39.96251912 6.46644432 -38.42574327 7.04409846 -36.25 8.4375 C-34.3049 11.35515 -33.79723683 13.06287285 -33.25 16.4375 C-32.52296875 15.65826172 -32.52296875 15.65826172 -31.78125 14.86328125 C-22.68223708 5.3968082 -13.33618766 -0.16420868 0 0 Z " fill="#0B0B0B" transform="translate(412.25,319.5625)"/>
<path d="M0 0 C4.95 0 9.9 0 15 0 C19.96590029 10.51555376 24.50384305 21.18095571 28.97827148 31.9128418 C30.19283928 34.82530327 31.41157678 37.73599401 32.63085938 40.64648438 C33.41430744 42.52073097 34.19751894 44.39507646 34.98046875 46.26953125 C35.33989059 47.12803177 35.69931244 47.98653229 36.06962585 48.87104797 C38.15467137 53.87793615 40.12608373 58.91020162 42 64 C37.38 64 32.76 64 28 64 C25.80342625 59.68007163 23.80381897 55.50954743 22 51 C15.4 50.67 8.8 50.34 2 50 C5 41 5 41 7 38 C10.3 38 13.6 38 17 38 C14.03 31.07 11.06 24.14 8 17 C5.74724122 20.37913816 4.35740974 23.87627643 2.8828125 27.6328125 C2.58438446 28.38408417 2.28595642 29.13535583 1.97848511 29.90939331 C1.02403669 32.31330811 0.07420104 34.71900892 -0.875 37.125 C-2.12005497 40.27436941 -3.36731268 43.42285277 -4.6171875 46.5703125 C-4.91453796 47.31927795 -5.21188843 48.06824341 -5.51824951 48.83990479 C-7.55741281 53.95188164 -9.70129045 58.99828524 -12 64 C-16.62 64 -21.24 64 -26 64 C-20.36105348 49.84292721 -14.6789434 35.70376252 -8.95730591 21.57992554 C-8.27691944 19.90036843 -7.59680509 18.22070106 -6.91696167 16.54092407 C-5.95463858 14.16364254 -4.99117982 11.7868247 -4.02734375 9.41015625 C-3.59047241 8.33051605 -3.59047241 8.33051605 -3.14477539 7.22906494 C-1.11487618 2.22975237 -1.11487618 2.22975237 0 0 Z " fill="#F8FAF9" transform="translate(504,441)"/>
<path d="M0 0 C3.26048047 0.27946975 4.88948692 0.91435237 7.5 2.9375 C14.34994486 11.32868245 15.61980584 18.39110972 15.45996094 29.04321289 C15.46827734 31.44919456 15.51421346 33.64257328 16 36 C18.29931552 38.40878565 18.29931552 38.40878565 21 40 C22.80056864 42.86837881 23.15654003 44.97676921 23.18359375 48.3203125 C23.71766405 54.06010102 26.8207008 56.33930201 31.0625 59.875 C37.67822325 65.83780213 37.67822325 65.83780213 38.92578125 70.34375 C38.88070881 73.03422782 38.66909993 75.39794472 38 78 C38.76828125 78.10441406 39.5365625 78.20882812 40.328125 78.31640625 C44.46531477 79.37489778 45.51063893 81.61170299 48 85 C49.74273088 88.48546176 49.44282275 92.1892296 49 96 C47.68274747 99.93670327 45.70994015 102.48818268 42.3125 104.9375 C38.04024159 106.30784704 34.42958023 106.95359019 30 106 C26.28780599 103.89079886 23.76310433 101.26078107 21.5625 97.625 C20.40041078 92.20191696 20.17235693 88.5666101 22.75 83.6875 C24.72821508 81.32463199 26.3686054 79.57883676 29 78 C29.66 78 30.32 78 31 78 C31.2776757 73.094396 30.72204825 70.93058639 27.66015625 66.984375 C26.70452447 65.95516992 25.73402671 64.93959112 24.75 63.9375 C24.27199951 63.43629639 23.79399902 62.93509277 23.30151367 62.41870117 C21.71140376 60.81489769 21.71140376 60.81489769 19 59 C16.35311071 59.04164876 16.35311071 59.04164876 14 60 C10.49852654 60.45389471 8.08685103 60.68143835 5.03125 58.765625 C0.66383909 55.14998154 -0.80032368 53.03004258 -1.375 47.1875 C-1.3389081 43.92719827 -0.77072142 42.12869223 1.25 39.5625 C3.88840752 37.1039839 4.67485839 36.6181353 8 36 C8.51014317 21.30327176 8.51014317 21.30327176 2.47265625 8.4609375 C1.74369141 7.73777344 1.74369141 7.73777344 1 7 C0.34 6.34 -0.32 5.68 -1 5 C-0.625 2.375 -0.625 2.375 0 0 Z " fill="#0A0A0A" transform="translate(384,559)"/>
<path d="M0 0 C4.77953057 1.72063101 8.78023432 4.31487754 11 9 C11.91902675 14.37031285 11.65035519 18.62702792 9.3125 23.5625 C6.93474769 26.06877946 5.30063098 27.08315806 2 28 C1.73979672 33.2908 2.08861289 35.81729534 5.375 40.08203125 C6.33790363 41.11180547 7.31754128 42.12616293 8.3125 43.125 C8.79887939 43.62233643 9.28525879 44.11967285 9.78637695 44.63208008 C11.37989837 46.20314953 11.37989837 46.20314953 14 48 C16.15342451 47.93711127 16.15342451 47.93711127 18 47 C23.23203117 46.61244214 26.58386636 47.08936647 31 50 C33.92647067 53.41421579 34.53389612 56.5092359 34.35546875 61.00390625 C33.7587725 64.35458518 32.18036911 66.45623604 30 69 C27.859375 70.1640625 27.859375 70.1640625 26 71 C25.14885267 85.25776917 25.14885267 85.25776917 31 98 C31.556875 98.52464844 32.11375 99.04929687 32.6875 99.58984375 C33.120625 100.05519531 33.55375 100.52054687 34 101 C33.6875 103.6875 33.6875 103.6875 33 106 C30.875 106.4375 30.875 106.4375 28 106 C22.30842894 101.63306568 19.37217795 94.86088974 18 88 C17.5666223 82.0027792 17.76229583 76.00203025 18 70 C17.401875 69.731875 16.80375 69.46375 16.1875 69.1875 C13.91541911 67.95408466 12.54154205 67.07424618 11 65 C10.69140625 62.46875 10.69140625 62.46875 10.5625 59.5 C9.55770754 51.92257427 5.19500815 48.72543903 -0.4453125 44.1796875 C-1.28835938 43.46039063 -2.13140625 42.74109375 -3 42 C-3 41.34 -3 40.68 -3 40 C-3.66 40 -4.32 40 -5 40 C-5 36.37 -5 32.74 -5 29 C-6.3303125 28.690625 -6.3303125 28.690625 -7.6875 28.375 C-11.98450304 26.59133836 -13.31323442 24.76147182 -16 21 C-17.24350856 17.26947433 -17.52198871 13.87447957 -17 10 C-13.3640833 2.72816659 -8.22408457 -1.02801057 0 0 Z " fill="#0A0A0A" transform="translate(607,279)"/>
<path d="M0 0 C4.29 0 8.58 0 13 0 C13 28.38 13 56.76 13 86 C8.71 86 4.42 86 0 86 C0 57.62 0 29.24 0 0 Z " fill="#050505" transform="translate(666,426)"/>
<path d="M0 0 C3.80122002 1.90061001 5.61270767 2.95307903 7.10546875 6.98828125 C9.18162754 10.28873162 9.56108677 10.50975183 13.09765625 11.50390625 C14.74807578 11.87737833 16.40348135 12.22929867 18.0625 12.5625 C34.41656565 16.36669784 47.27710464 24.29972435 56.69140625 38.5625 C63.59822726 50.4720059 65.67391436 61.46555335 65 75 C62.625 75.625 62.625 75.625 60 76 C57.2491781 73.2491781 57.73625471 71.53434565 57.625 67.6875 C56.68539244 52.38755692 51.04697913 41.25810677 40.02734375 30.74609375 C30.39806094 22.4526652 19.41541723 19.47895252 7 18 C6.72671875 18.62390625 6.4534375 19.2478125 6.171875 19.890625 C4.4242436 23.03636151 2.30389106 23.72927267 -1 25 C-4.95353844 25.57655769 -6.63153793 25.19506815 -10.1875 23.3125 C-14.21922828 19.99752342 -15.77457609 17.77118784 -16.4375 12.5625 C-15.79673956 7.34487925 -13.73597372 4.40754626 -9.6875 1.125 C-6.16108808 -0.35117243 -3.79611 -0.46618895 0 0 Z " fill="#090A0A" transform="translate(549,295)"/>
<path d="M0 0 C4.70588235 0.70588235 4.70588235 0.70588235 6 2 C6.19477434 3.83977067 6.3841503 5.68029923 6.54394531 7.5234375 C7.92658956 22.88323901 13.48180788 36.01281429 25.43359375 46.14453125 C33.88958171 52.25806897 45.29594944 57.80414403 56 57 C59.04475302 54.79086457 59.04475302 54.79086457 61 52 C64.19563068 50.40218466 67.5234633 50.63158089 71 51 C75.10601848 52.77305344 77.66278175 55.19119988 80 59 C80.88425451 64.96871797 79.35866319 68.24189381 76 73 C71.65552847 75.77897965 66.98887579 75.79239842 62 75 C58.82209309 72.68277621 57.31977202 71.23260959 56.328125 67.41015625 C55.88984375 66.61480469 55.4515625 65.81945312 55 65 C52.46588674 64.28921213 50.33455856 63.90374461 47.75 63.625 C34.5023024 61.64188338 24.33656903 55.62152715 15 46 C14.03126953 45.04480469 14.03126953 45.04480469 13.04296875 44.0703125 C2.39884484 32.89282291 -1.38295687 19.0283187 -1.203125 4.02734375 C-1 1 -1 1 0 0 Z " fill="#080808" transform="translate(411,574)"/>
<path d="M0 0 C6.95425288 0.43464081 12.1978855 5.93413638 16.75 10.75 C25.03184179 21.04235291 24.5041909 31.54015232 24.25 44.125 C24.22990082 45.86195853 24.2116561 47.59893957 24.1953125 49.3359375 C24.15159511 53.55785487 24.0827586 57.77867484 24 62 C24.7930957 62.13736572 25.58619141 62.27473145 26.40332031 62.41625977 C30.51014131 63.33948363 31.55437529 65.67123303 34 69 C35.74273088 72.48546176 35.44282275 76.1892296 35 80 C33.68274747 83.93670327 31.70994015 86.48818268 28.3125 88.9375 C22.61553817 90.76482738 18.0720225 90.99764046 12.625 88.375 C8.26603753 84.43117681 6.83260443 80.84858487 6.4375 75.0625 C6.5820996 70.27625322 8.02283738 67.76561787 11.19921875 64.27734375 C13.41554747 62.70524073 15.34916055 62.46651955 18 62 C17.93043189 57.62528072 17.8421463 53.2514305 17.73754883 48.87744141 C17.70458303 47.39381957 17.67646583 45.91008085 17.65356445 44.42626953 C17.47491267 33.15220199 17.27018415 21.59867277 9 13 C5.76500083 10.19666483 2.427961 7.56265046 -1 5 C-0.67 3.35 -0.34 1.7 0 0 Z " fill="#090909" transform="translate(611,466)"/>
<path d="M0 0 C3.3 -0.0825 6.6 -0.165 10 -0.25 C11.02351563 -0.28641602 12.04703125 -0.32283203 13.1015625 -0.36035156 C19.28029578 -0.43447723 23.89706138 0.38365804 29 4 C31.22525745 6.19007552 31.88350285 7.30786986 32.3984375 10.3671875 C32.34916179 15.63968899 32.02004882 19.46992678 29 24 C28.34 24.33 27.68 24.66 27 25 C27.65784963 28.29680965 28.89420573 30.84117922 30.5625 33.75 C31.24505859 34.94882812 31.24505859 34.94882812 31.94140625 36.171875 C32.46541016 37.07679688 32.46541016 37.07679688 33 38 C29.84560217 38.56779161 27.12814147 38.78461634 24 38 C22.2090045 35.81965766 20.98441078 33.53440417 19.6171875 31.0703125 C18.1566712 28.81430694 18.1566712 28.81430694 15.6328125 28.1796875 C12.86047025 27.8650442 12.86047025 27.8650442 9 28 C9 31.63 9 35.26 9 39 C6.03 39 3.06 39 0 39 C0 26.13 0 13.26 0 0 Z " fill="#141416" transform="translate(314,729)"/>
<path d="M0 0 C3.3 0 6.6 0 10 0 C10.44653931 0.94637329 10.44653931 0.94637329 10.90209961 1.91186523 C12.2450233 4.75479352 13.59121615 7.59616151 14.9375 10.4375 C15.40607422 11.43072266 15.87464844 12.42394531 16.35742188 13.44726562 C16.80537109 14.39150391 17.25332031 15.33574219 17.71484375 16.30859375 C18.12855225 17.18314209 18.54226074 18.05769043 18.96850586 18.95874023 C19.83676941 20.94083413 19.83676941 20.94083413 21 22 C24.3 15.07 27.6 8.14 31 1 C34.3 1 37.6 1 41 1 C41 13.21 41 25.42 41 38 C38.69 38 36.38 38 34 38 C33.67 30.74 33.34 23.48 33 16 C30.45245135 21.50241434 30.45245135 21.50241434 27.91455078 27.00927734 C27.59470215 27.6945752 27.27485352 28.37987305 26.9453125 29.0859375 C26.62062988 29.7876709 26.29594727 30.4894043 25.96142578 31.21240234 C25 33 25 33 23 35 C20.375 35.125 20.375 35.125 18 35 C16.87247351 32.77208002 15.74791861 30.54274113 14.625 28.3125 C14.30789063 27.68666016 13.99078125 27.06082031 13.6640625 26.41601562 C11.93608683 22.97806402 10.43270907 19.58177266 9 16 C8.67 23.59 8.34 31.18 8 39 C5.36 39 2.72 39 0 39 C0 26.13 0 13.26 0 0 Z " fill="#0B0B0B" transform="translate(441,729)"/>
<path d="M0 0 C3.3 0 6.6 0 10 0 C10.31227539 0.71019287 10.62455078 1.42038574 10.94628906 2.15209961 C12.38067755 5.41397973 13.81533695 8.67574063 15.25 11.9375 C15.74113281 13.05447266 16.23226563 14.17144531 16.73828125 15.32226562 C17.22167969 16.42119141 17.70507812 17.52011719 18.203125 18.65234375 C18.9137207 20.27245361 18.9137207 20.27245361 19.63867188 21.92529297 C20.49640597 23.86257833 21.36590255 25.7947392 22.25195312 27.71923828 C22.80012695 28.91202393 22.80012695 28.91202393 23.359375 30.12890625 C23.83842285 31.15286499 23.83842285 31.15286499 24.32714844 32.19750977 C25 34 25 34 25 37 C22.36 37 19.72 37 17 37 C16.01 35.02 15.02 33.04 14 31 C8.06 31 2.12 31 -4 31 C-4.99 32.98 -5.98 34.96 -7 37 C-9.64 37 -12.28 37 -15 37 C-12.48998474 28.90630167 -9.18401726 21.19978454 -5.8125 13.4375 C-5.24770722 12.12970392 -4.68325152 10.82176222 -4.11914062 9.51367188 C-2.74997252 6.34076099 -1.37626474 3.16984025 0 0 Z " fill="#0A0A0A" transform="translate(369,730)"/>
<path d="M0 0 C1.23556641 0.01740234 1.23556641 0.01740234 2.49609375 0.03515625 C3.32238281 0.04417969 4.14867187 0.05320312 5 0.0625 C5.63808594 0.07410156 6.27617188 0.08570313 6.93359375 0.09765625 C8.91832967 4.39849005 10.89349279 8.70354508 12.86010742 13.01269531 C13.52972575 14.47644444 14.20189447 15.93902975 14.87670898 17.40039062 C15.84910453 19.50736725 16.81209542 21.61843005 17.7734375 23.73046875 C18.07450912 24.3775882 18.37558075 25.02470764 18.68577576 25.69143677 C20.39990685 29.48526362 21.44116742 32.96350071 21.93359375 37.09765625 C19.29359375 37.09765625 16.65359375 37.09765625 13.93359375 37.09765625 C12.47296525 34.45026709 11.93359375 33.20317291 11.93359375 30.09765625 C5.66359375 30.42765625 -0.60640625 30.75765625 -7.06640625 31.09765625 C-8.05640625 33.07765625 -9.04640625 35.05765625 -10.06640625 37.09765625 C-12.70640625 37.09765625 -15.34640625 37.09765625 -18.06640625 37.09765625 C-16.6405316 32.61174403 -14.94012224 28.29625059 -13.0625 23.984375 C-12.77915298 23.32935501 -12.49580597 22.67433502 -12.20387268 21.99946594 C-11.60923797 20.62663061 -11.01334881 19.25433801 -10.41625977 17.88256836 C-9.49971108 15.77551196 -8.58847942 13.66621106 -7.67773438 11.55664062 C-7.09797107 10.2199155 -6.51790386 8.88332213 -5.9375 7.546875 C-5.66457626 6.91464523 -5.39165253 6.28241547 -5.11045837 5.63102722 C-2.70786867 0.12797111 -2.70786867 0.12797111 0 0 Z " fill="#090A0A" transform="translate(589.06640625,729.90234375)"/>
<path d="M0 0 C1.23556641 0.01740234 1.23556641 0.01740234 2.49609375 0.03515625 C3.32238281 0.04417969 4.14867187 0.05320312 5 0.0625 C5.63808594 0.07410156 6.27617188 0.08570313 6.93359375 0.09765625 C7.31692871 0.98549805 7.70026367 1.87333984 8.09521484 2.78808594 C9.52163706 6.09099225 10.94955964 9.39324813 12.37792969 12.6953125 C12.99519958 14.12287057 13.61206582 15.55060324 14.22851562 16.97851562 C15.11611841 19.03431821 16.00518462 21.08948256 16.89453125 23.14453125 C17.16856781 23.78009949 17.44260437 24.41566772 17.72494507 25.07049561 C18.79332829 27.53618625 19.86547432 29.96902037 21.12353516 32.34472656 C21.93359375 34.09765625 21.93359375 34.09765625 21.93359375 37.09765625 C19.29359375 37.09765625 16.65359375 37.09765625 13.93359375 37.09765625 C12.94359375 35.11765625 11.95359375 33.13765625 10.93359375 31.09765625 C4.66359375 30.76765625 -1.60640625 30.43765625 -8.06640625 30.09765625 C-8.56140625 32.57265625 -8.56140625 32.57265625 -9.06640625 35.09765625 C-9.39640625 35.75765625 -9.72640625 36.41765625 -10.06640625 37.09765625 C-12.70640625 37.09765625 -15.34640625 37.09765625 -18.06640625 37.09765625 C-17.41001043 32.68591898 -15.78690272 28.8842727 -13.94140625 24.86328125 C-13.63444824 24.18465027 -13.32749023 23.50601929 -13.01123047 22.80682373 C-12.36477131 21.38034931 -11.71579707 19.95501232 -11.06445312 18.53076172 C-10.06447181 16.3434249 -9.07263844 14.15253331 -8.08203125 11.9609375 C-7.45229472 10.57400443 -6.82210241 9.1872782 -6.19140625 7.80078125 C-5.89347168 7.14354065 -5.59553711 6.48630005 -5.28857422 5.80914307 C-2.68460215 0.12687156 -2.68460215 0.12687156 0 0 Z " fill="#0A0A0A" transform="translate(678.06640625,729.90234375)"/>
<path d="M0 0 C1.23556641 0.01740234 1.23556641 0.01740234 2.49609375 0.03515625 C3.32238281 0.04417969 4.14867187 0.05320312 5 0.0625 C5.63808594 0.07410156 6.27617188 0.08570313 6.93359375 0.09765625 C9.07690236 4.88171868 11.21294316 9.6689333 13.34228516 14.45922852 C14.06782891 16.08869915 14.79535807 17.71728725 15.52490234 19.3449707 C16.57260792 21.68342105 17.61315502 24.02494222 18.65234375 26.3671875 C18.98045044 27.09541214 19.30855713 27.82363678 19.64660645 28.57392883 C20.97270785 31.57875811 21.93359375 33.77551076 21.93359375 37.09765625 C19.29359375 37.09765625 16.65359375 37.09765625 13.93359375 37.09765625 C12.47296525 34.45026709 11.93359375 33.20317291 11.93359375 30.09765625 C5.66359375 30.42765625 -0.60640625 30.75765625 -7.06640625 31.09765625 C-8.05640625 33.07765625 -9.04640625 35.05765625 -10.06640625 37.09765625 C-12.70640625 37.09765625 -15.34640625 37.09765625 -18.06640625 37.09765625 C-14.94876461 28.54875469 -11.4379345 20.19316943 -7.81640625 11.84765625 C-7.14375732 10.29292603 -7.14375732 10.29292603 -6.45751953 8.70678711 C-6.0345459 7.73749268 -5.61157227 6.76819824 -5.17578125 5.76953125 C-4.79389648 4.89393555 -4.41201172 4.01833984 -4.01855469 3.11621094 C-2.60675354 0.12319251 -2.60675354 0.12319251 0 0 Z " fill="#090A0A" transform="translate(509.06640625,729.90234375)"/>
<path d="M0 0 C3.48715894 1.98396827 6.19673639 4.39347279 8 8 C8.52657873 13.28305214 8.64191122 17.66862857 6.3125 22.5 C4 25 4 25 1.40625 26.01953125 C-1.16030802 27.72429924 -1.16030802 27.72429924 -1.49731445 30.11279297 C-1.71894747 32.81315515 -1.79557847 35.47817493 -1.8125 38.1875 C-1.83763672 39.12787109 -1.86277344 40.06824219 -1.88867188 41.03710938 C-1.94759024 43.35849279 -1.9838331 45.67798924 -2 48 C-9.16628702 40.83371298 -9.16628702 40.83371298 -9.25 34.625 C-9.40211112 29.28931263 -9.40211112 29.28931263 -12.875 25.4375 C-13.90625 24.963125 -14.9375 24.48875 -16 24 C-19.4695883 20.0518478 -20.41002388 16.41382377 -20.3515625 11.1328125 C-19.73572845 7.39675261 -17.67899948 4.6084995 -15 2 C-10.3798336 -0.92316261 -5.27542546 -0.87799747 0 0 Z " fill="#0D0C0C" transform="translate(398,389)"/>
<path d="M0 0 C-0.52268466 2.76276177 -1.10869587 5.3260876 -2 8 C-2.87011719 7.67515625 -2.87011719 7.67515625 -3.7578125 7.34375 C-8.32553887 5.71564951 -12.0780464 4.62138818 -17 5 C-17.33 6.65 -17.66 8.3 -18 10 C-16.96359375 10.37511719 -15.9271875 10.75023437 -14.859375 11.13671875 C-13.489283 11.6528493 -12.11950769 12.16982103 -10.75 12.6875 C-9.72712891 13.05391602 -9.72712891 13.05391602 -8.68359375 13.42773438 C-4.21331911 15.142063 -1.62175383 16.80254564 1 21 C1.6640339 24.90119917 1.17825721 26.65034163 -0.625 30.1875 C-3.78681089 33.93174974 -6.33952793 35.57918719 -11.22265625 36.3515625 C-18.38894412 36.78312976 -23.76309863 34.32002354 -30 31 C-29 27 -29 27 -28 23 C-24 25 -24 25 -22.25 26.0625 C-19.31158997 27.28683751 -16.92093472 27.19393336 -13.75 27.125 C-12.13351562 27.09792969 -12.13351562 27.09792969 -10.484375 27.0703125 C-9.66453125 27.04710937 -8.8446875 27.02390625 -8 27 C-7.93080809 25.06370301 -7.93080809 25.06370301 -9 23 C-11.45914506 21.84013786 -13.75028631 20.91816912 -16.3125 20.0625 C-21.47422836 18.33864971 -25.06790241 16.825437 -28 12 C-28.76349 9.21984331 -28.66371115 6.80233596 -28 4 C-20.46194936 -5.6319536 -10.35231216 -4.20093827 0 0 Z " fill="#0F0F10" transform="translate(430,732)"/>
<path d="M0 0 C2.64 0 5.28 0 8 0 C8 9.9 8 19.8 8 30 C13.94 30 19.88 30 26 30 C26 32.31 26 34.62 26 37 C17.42 37 8.84 37 0 37 C0 24.79 0 12.58 0 0 Z " fill="#050606" transform="translate(540,730)"/>
<path d="M0 0 C2.37142035 1.84443805 3.8452124 3.08829718 5.25 5.75 C5.79500097 10.74584223 5.34938694 13.76507393 2.25 17.75 C0.34180914 19.87836673 -1.0083174 20.63589498 -3.83203125 21.0703125 C-7.63720523 21.25962464 -10.20869096 21.0033787 -13.6875 19.375 C-16.7025729 15.5376345 -17.14110682 11.51208992 -17.75 6.75 C-17.09 6.42 -16.43 6.09 -15.75 5.75 C-15.46125 4.945625 -15.1725 4.14125 -14.875 3.3125 C-13.75 0.75 -13.75 0.75 -12.0625 -0.5625 C-7.74019486 -1.84750964 -4.12192849 -1.87360386 0 0 Z " fill="#319354" transform="translate(451.75,325.25)"/>
<path d="M0 0 C2.82424288 2.19022918 4.41508603 3.83017207 6 7 C6.57791538 14.0505676 6.57791538 14.0505676 4.25 17.875 C0.94650078 20.99497149 -0.8400032 21.84963004 -5.375 22.4375 C-10.1853299 21.85694294 -11.61392593 20.38607407 -15 17 C-16.72869779 13.54260443 -16.48966895 9.78024432 -16 6 C-11.94593628 -0.48650194 -7.27098548 -1.05177777 0 0 Z " fill="#339357" transform="translate(583,599)"/>
<path d="M0 0 C0.77085937 -0.01417969 1.54171875 -0.02835937 2.3359375 -0.04296875 C4.91248088 0.21644432 6.44925673 0.79409846 8.625 2.1875 C10.69694361 5.29541541 11.14887262 7.14755018 11.09375 10.84765625 C10.16075179 15.50487233 7.28306465 19.32697753 4.625 23.1875 C4.295 22.5275 3.965 21.8675 3.625 21.1875 C2.573125 21.27 1.52125 21.3525 0.4375 21.4375 C-3.98554645 21.14746417 -5.33078635 20.31869118 -8.375 17.1875 C-10.66353994 13.91815722 -10.84662218 11.1176848 -10.375 7.1875 C-7.43504805 1.99358489 -5.92667896 0.04922491 0 0 Z " fill="#379359" transform="translate(367.375,325.8125)"/>
<path d="M0 0 C5.53846154 3.07692308 5.53846154 3.07692308 7 6 C7.42071592 9.05920574 7.48514117 11.9467746 7 15 C4.81840855 17.75569447 3.12822506 19.43588747 0 21 C-4.18144011 21.39447548 -6.30946048 21.45035186 -9.875 19.125 C-12.73785628 16.26214372 -13.1865146 14.63283238 -13.3125 10.6875 C-13.28413514 7.16458401 -13.06650675 6.10641081 -11.125 3 C-7.48575824 -0.42516871 -4.95016076 -0.4125134 0 0 Z " fill="#37945B" transform="translate(421,287)"/>
<path d="M0 0 C2.87029869 1.79393668 4.49131638 2.98263276 6 6 C6.5811138 13.08958838 6.5811138 13.08958838 4.125 16.9375 C0.63841797 20.3215355 -2.03592714 20.38966392 -6.73828125 20.359375 C-10.32520929 19.78943134 -11.86838894 17.79773951 -14 15 C-15.55024464 11.89951072 -15.28992015 9.42105782 -15 6 C-10.96954107 -0.18003703 -7.06173502 -0.91473252 0 0 Z " fill="#33935A" transform="translate(610,637)"/>
<path d="M0 0 C3.6578218 2.03993908 5.66946174 3.50419262 8 7 C8.5291588 10.96869102 8.15826216 12.71621958 6.1875 16.25 C4 19 4 19 1 21 C-2.0169088 21.34061873 -4.09407815 21.57212107 -7 21 C-10.883836 17.85987727 -12.8023937 15.71258797 -13.375 10.75 C-12.88072704 5.80727042 -11.46171699 4.46171699 -8 1 C-5.13391871 -0.43304064 -3.18699217 -0.30644155 0 0 Z " fill="#369558" transform="translate(530,606)"/>
<path d="M0 0 C5.82681177 0.25389158 9.74415528 0.61116013 14 5 C15.73631636 8.47263273 15.60190402 12.21193013 15 16 C12.81840855 18.75569447 11.12822506 20.43588747 8 22 C3.81855989 22.39447548 1.69053952 22.45035186 -1.875 20.125 C-4.7137447 17.2862553 -4.9533118 16.45131927 -5.375 12.375 C-5.35643687 7.30726686 -2.94675134 3.95706608 0 0 Z " fill="#369459" transform="translate(651,598)"/>
<path d="M0 0 C3.73325038 2.51422985 4.74796824 4.13364082 6 8.4375 C6 12.55333147 5.29147823 14.60229091 3 18 C0.07058855 20.38692784 -3.3108499 20.47088274 -7.03125 20.39453125 C-10.38693026 19.72206358 -11.95936396 17.59717314 -14 15 C-15.57455739 11.85088521 -15.34799118 9.47991184 -15 6 C-11.44471141 -0.51802909 -7.19135729 -1.55871784 0 0 Z " fill="#369559" transform="translate(501,318)"/>
<path d="M0 0 C2.64 0 5.28 0 8 0 C8 12.54 8 25.08 8 38 C5.36 38 2.72 38 0 38 C0 25.46 0 12.92 0 0 Z " fill="#09090A" transform="translate(709,730)"/>
<path d="M0 0 C2.64 0 5.28 0 8 0 C8 12.21 8 24.42 8 37 C5.36 37 2.72 37 0 37 C0 24.79 0 12.58 0 0 Z " fill="#060506" transform="translate(620,730)"/>
<path d="M0 0 C2.9375 2.0625 2.9375 2.0625 5 5 C5 8.51955419 4.63108355 10.84920059 2.9375 13.9375 C-0.27905997 15.70141999 -3.49385409 15.73924763 -7 15 C-9.5625 12.9375 -9.5625 12.9375 -11 10 C-11 6.1862249 -10.84985071 3.97575452 -8.3125 1.0625 C-5.2135552 -0.3613395 -3.37817188 -0.55153827 0 0 Z " fill="#F3F5F6" transform="translate(477,281)"/>
<path d="M0 0 C3.70864386 0.92716097 5.20985284 2.6150923 7.5 5.625 C8.125 8.625 8.125 8.625 7.5 11.625 C5.4375 14.5625 5.4375 14.5625 2.5 16.625 C-1.35210127 16.69141554 -3.49848005 16.49729157 -6.4375 13.9375 C-7.8613395 10.8385552 -8.05153827 9.00317188 -7.5 5.625 C-5.20985284 2.6150923 -3.70864386 0.92716097 0 0 Z " fill="#EFF1F2" transform="translate(550.5,647.375)"/>
<path d="M0 0 C4.11289267 0.85685264 5.59686932 2.20235933 8 5.625 C8.06641554 9.47710127 7.87229157 11.62348005 5.3125 14.5625 C2.26397123 15.96317538 0.32073048 16.1092732 -3 15.625 C-5.92587775 13.5689778 -6.84701429 12.04796048 -8.0625 8.6875 C-8 5.625 -8 5.625 -5.9375 2.75 C-3 0.625 -3 0.625 0 0 Z " fill="#EEEDEC" transform="translate(688,522.375)"/>
<path d="M0 0 C2.4375 1.0625 2.4375 1.0625 4 3 C4.73394876 7.40369259 4.48144207 9.29972063 1.9375 13 C-1 15 -1 15 -4.625 15.0625 C-8 14 -8 14 -9.9375 12.3125 C-11.33817538 9.26397123 -11.4842732 7.32073048 -11 4 C-8.04627097 -0.48966812 -5.14336369 -0.64292046 0 0 Z " fill="#F2F2F1" transform="translate(337,523)"/>
<path d="M0 0 C1.94140625 0.3828125 1.94140625 0.3828125 4.44140625 2.0078125 C6.42338939 5.14595248 6.61204683 6.73154715 5.94140625 10.3828125 C3.45538176 13.74625739 2.02715102 15.18338999 -2.12109375 15.9453125 C-5.05859375 15.3828125 -5.05859375 15.3828125 -7.43359375 13.8203125 C-9.66715065 10.46997715 -9.55257584 8.3346692 -9.05859375 4.3828125 C-7.24997024 -0.02570731 -4.5929287 -0.25375297 0 0 Z " fill="#F5F5F5" transform="translate(415.05859375,355.6171875)"/>
<path d="M0 0 C2.9375 2.0625 2.9375 2.0625 5 5 C5.06584389 8.81894541 4.85572029 10.97971812 2.375 13.9375 C-0.93237046 15.4171131 -3.42006868 15.39053796 -7 15 C-8.9375 14 -8.9375 14 -10 12 C-10.75912409 5.16788321 -10.75912409 5.16788321 -8.375 1.5 C-5.23686002 -0.48198314 -3.65126535 -0.67064058 0 0 Z " fill="#F2F3F4" transform="translate(422,643)"/>
<path d="M0 0 C2.4375 1.5625 2.4375 1.5625 4 4 C4.56783945 7.97487617 4.62340519 10.06489221 2.375 13.4375 C-0.75683492 15.49791771 -2.31544773 15.6767545 -6 15 C-8.9375 12.9375 -8.9375 12.9375 -11 10 C-11 6.45638757 -10.65850044 4.13408409 -8.875 1.0625 C-5.81547541 -0.6712306 -3.43182475 -0.42145216 0 0 Z " fill="#F4F4F3" transform="translate(512,580)"/>
<path d="M0 0 C2.9375 0.5625 2.9375 0.5625 5.3125 2.125 C7.56090519 5.49760779 7.50533945 7.58762383 6.9375 11.5625 C5.375 14 5.375 14 2.9375 15.5625 C-0.5625 16.125 -0.5625 16.125 -4.0625 15.5625 C-6.72356976 13.17436047 -7.84099624 11.54696115 -8.625 8.0625 C-7.55696126 3.31566113 -4.70899508 0.86491746 0 0 Z " fill="#F3F4F4" transform="translate(632.0625,533.4375)"/>
<path d="M0 0 C2.875 1.5625 2.875 1.5625 5 4 C5.63734462 7.96569988 5.61999672 10.03280512 3.4375 13.4375 C0.05782196 15.60396028 -2.05983987 15.56288002 -6 15 C-8.4375 13.4375 -8.4375 13.4375 -10 11 C-10.56783945 7.02512383 -10.62340519 4.93510779 -8.375 1.5625 C-5.26456309 -0.48384007 -3.66322334 -0.59807728 0 0 Z " fill="#F7F6F5" transform="translate(691,405)"/>
<path d="M0 0 C1.9375 1.125 1.9375 1.125 3 3 C3.3898913 6.57400356 3.37020241 9.09763163 2 12.4375 C-0.58949107 14.4605399 -2.81364374 14.62470607 -6.0546875 14.4453125 C-8 14 -8 14 -10.5625 11.9375 C-12.44610971 8.08838451 -12.207644 6.07579849 -11 2 C-7.79952331 -1.93904824 -4.62362797 -1.17692348 0 0 Z " fill="#F5F5F4" transform="translate(338,402)"/>
<path d="M0 0 C2.9375 2.0625 2.9375 2.0625 5 5 C5.06641554 8.85210127 4.87229157 10.99848005 2.3125 13.9375 C-0.73602877 15.33817538 -2.67926952 15.4842732 -6 15 C-8.375 13.4375 -8.375 13.4375 -10 11 C-10.56783945 7.02512383 -10.62340519 4.93510779 -8.375 1.5625 C-5.24316508 -0.49791771 -3.68455227 -0.6767545 0 0 Z " fill="#F1F2F1" transform="translate(518,350)"/>
<path d="M0 0 C2.4375 1.625 2.4375 1.625 4 4 C4.5625 6.9375 4.5625 6.9375 4 10 C1.9375 12.9375 1.9375 12.9375 -1 15 C-4.85210127 15.06641554 -6.99848005 14.87229157 -9.9375 12.3125 C-11.33817538 9.26397123 -11.4842732 7.32073048 -11 4 C-8.05899778 -0.47032338 -5.13105401 -0.73300772 0 0 Z " fill="#F4F5F5" transform="translate(614,574)"/>
<path d="M0 0 C2 1.625 2 1.625 3 4 C2.87988224 7.42335626 2.60726153 9.95416069 0.875 12.9375 C-2.18452459 14.6712306 -4.56817525 14.42145216 -8 14 C-10.4375 12.4375 -10.4375 12.4375 -12 10 C-12.5625 6.5 -12.5625 6.5 -12 3 C-8.33340589 -1.4443565 -5.38867153 -1.59664341 0 0 Z " fill="#F6F6F6" transform="translate(397,396)"/>
<path d="M0 0 C2.9375 2.0625 2.9375 2.0625 5 5 C5.06641554 8.85210127 4.87229157 10.99848005 2.3125 13.9375 C-0.73602877 15.33817538 -2.67926952 15.4842732 -6 15 C-8.375 13.4375 -8.375 13.4375 -10 11 C-10.56783945 7.02512383 -10.62340519 4.93510779 -8.375 1.5625 C-5.24316508 -0.49791771 -3.68455227 -0.6767545 0 0 Z " fill="#F5F6F6" transform="translate(607,286)"/>
<path d="M0 0 C11.625 -0.25 11.625 -0.25 15 2 C15.36328125 3.875 15.36328125 3.875 15.3125 6 C15.30863281 6.70125 15.30476563 7.4025 15.30078125 8.125 C15 10 15 10 13 12 C9.9609375 12.1953125 9.9609375 12.1953125 6.375 12.125 C5.18648438 12.10695313 3.99796875 12.08890625 2.7734375 12.0703125 C1.85820312 12.04710937 0.94296875 12.02390625 0 12 C0 8.04 0 4.08 0 0 Z " fill="#F8F9FA" transform="translate(323,737)"/>
<path d="M0 0 C0.639375 0.66 1.27875 1.32 1.9375 2 C6.61623963 6.67873963 11.48964781 11.32643188 17 15 C16.67 16.65 16.34 18.3 16 20 C12.55838268 20.42557634 11.287522 20.2084316 8.4296875 18.13671875 C7.58664062 17.32847656 6.74359375 16.52023437 5.875 15.6875 C5.02679688 14.88699219 4.17859375 14.08648437 3.3046875 13.26171875 C2.16386719 12.14216797 2.16386719 12.14216797 1 11 C0.38769531 10.4946875 -0.22460938 9.989375 -0.85546875 9.46875 C-2 8 -2 8 -1.85546875 5.95703125 C-1.23697917 3.97135417 -0.61848958 1.98567708 0 0 Z " fill="#0D0D0D" transform="translate(398,459)"/>
<path d="M0 0 C2.31243792 -0.02685412 4.6249627 -0.04632841 6.9375 -0.0625 C8.22527344 -0.07410156 9.51304687 -0.08570313 10.83984375 -0.09765625 C14 0 14 0 15 1 C15 2.98 15 4.96 15 7 C10.05 7 5.1 7 0 7 C0 4.69 0 2.38 0 0 Z " fill="#232425" transform="translate(639,748)"/>
<path d="M0 0 C0.66 0 1.32 0 2 0 C2.67528223 1.57967807 3.33989694 3.16391903 4 4.75 C4.37125 5.63171875 4.7425 6.5134375 5.125 7.421875 C6 10 6 10 6 14 C2.37 14 -1.26 14 -5 14 C-1.85714286 4.42857143 -1.85714286 4.42857143 0 0 Z " fill="#E5E5E6" transform="translate(373,739)"/>
<path d="M0 0 C0.66 0 1.32 0 2 0 C2.67528223 1.57967807 3.33989694 3.16391903 4 4.75 C4.37125 5.63171875 4.7425 6.5134375 5.125 7.421875 C6 10 6 10 6 14 C2.37 14 -1.26 14 -5 14 C-1.85714286 4.42857143 -1.85714286 4.42857143 0 0 Z " fill="#E3E3E6" transform="translate(679,739)"/>
<path d="M0 0 C3.40198926 4.04998722 6 8.63626649 6 14 C2.37 14 -1.26 14 -5 14 C-4.46515599 8.65155992 -2.53309233 4.64203897 0 0 Z " fill="#EAEAEA" transform="translate(591,739)"/>
<path d="M0 0 C3.40198926 4.04998722 6 8.63626649 6 14 C2.37 14 -1.26 14 -5 14 C-4.46515599 8.65155992 -2.53309233 4.64203897 0 0 Z " fill="#EBEBEB" transform="translate(511,739)"/>
<path d="M0 0 C0.66 0.33 1.32 0.66 2 1 C1.51917969 1.33644531 1.03835938 1.67289062 0.54296875 2.01953125 C-1.75609967 4.97048742 -1.56983952 8.08708942 -1.6875 11.6875 C-1.72166016 12.38939453 -1.75582031 13.09128906 -1.79101562 13.81445312 C-1.87329947 15.54241387 -1.9383324 17.27118072 -2 19 C-2.33 19 -2.66 19 -3 19 C-3.08071788 16.20775927 -3.14035408 13.41783434 -3.1875 10.625 C-3.21263672 9.8309375 -3.23777344 9.036875 -3.26367188 8.21875 C-3.29004405 6.14413852 -3.15486462 4.06899135 -3 2 C-2.01 1.34 -1.02 0.68 0 0 Z " fill="#E5E4E5" transform="translate(635,348)"/>
<path d="M0 0 C0.8125 1.6875 0.8125 1.6875 1 4 C-1.4375 6.75 -1.4375 6.75 -4 9 C-2.94124926 5.59687262 -1.99097846 2.98646769 0 0 Z " fill="#E2E0E4" transform="translate(473,746)"/>
</svg>
